<?xml version="1.0" encoding="utf-8"?>
<!-- Generator: Adobe Illustrator 22.1.0, SVG Export Plug-In . SVG Version: 6.00 Build 0)  -->
<svg version="1.1" id="Layer_1" xmlns="http://www.w3.org/2000/svg" xmlns:xlink="http://www.w3.org/1999/xlink" x="0px" y="0px"
	 viewBox="0 0 257.3 40.5" style="enable-background:new 0 0 257.3 40.5;" xml:space="preserve">
<style type="text/css">
	.st0{fill:#FFFFFF;}
</style>
<g id="XMLID_1_">
	<g id="XMLID_4_">
		<path id="XMLID_15_" class="st0" d="M198.1,12.3h5.4c0.9,0,1.6,0.2,2.1,0.7c0.4,0.5,0.7,1.1,0.7,1.8c0,0.7-0.2,1.4-0.7,2
			s-1.2,0.9-2.2,1.1c0.6,0.5,1.3,1.8,2.2,4h-3.1c-0.3-0.7-0.6-1.4-0.9-2.3c-0.4-0.8-0.6-1.3-0.8-1.4c-0.2-0.1-0.4-0.2-0.6-0.2H200
			l-0.8,3.9h-3L198.1,12.3z M200.2,16.1h0.6c0.9,0,1.5,0,1.8-0.1s0.5-0.2,0.6-0.4c0.1-0.2,0.2-0.4,0.2-0.6s-0.1-0.4-0.2-0.6
			c-0.2-0.1-0.5-0.2-1-0.2h-1.5L200.2,16.1z"/>
		<path id="XMLID_13_" class="st0" d="M221.5,12.4l-0.4,1.6c-0.4-0.1-0.7-0.2-0.9-0.2c-0.2,0-0.4,0-0.5,0.1s-0.2,0.4-0.4,1h1.3
			l-0.4,1.9h-1.3l-1.1,5h-2.7l1.1-5h-1l0.4-1.9h1c0.2-0.8,0.3-1.3,0.4-1.6c0.1-0.2,0.2-0.5,0.4-0.7c0.2-0.2,0.4-0.3,0.7-0.4
			c0.3-0.1,0.6-0.1,1.1-0.1C219.9,12.1,220.6,12.2,221.5,12.4z"/>
		<path id="XMLID_11_" class="st0" d="M228.9,14.9l-1.5,6.9h-2.5l0.2-1.1l0,0c-0.7,0.8-1.6,1.2-2.7,1.2c-0.6,0-1.1-0.2-1.4-0.5
			s-0.5-0.7-0.5-1.2c0-0.3,0.1-0.9,0.3-1.7l0.8-3.7h2.7l-0.7,3.4c-0.1,0.5-0.2,0.8-0.2,0.9s0,0.2,0,0.3l0,0c0,0.4,0.2,0.6,0.5,0.6
			c0.4,0,0.7-0.2,1-0.5c0.3-0.4,0.5-0.9,0.7-1.6l0.6-3L228.9,14.9L228.9,14.9z"/>
		<path id="XMLID_9_" class="st0" d="M236.7,16.6l-2.5,0.3c-0.1-0.4-0.4-0.6-0.9-0.6c-0.3,0-0.6,0.1-0.7,0.2
			c-0.2,0.1-0.2,0.3-0.2,0.4c0,0.2,0.1,0.3,0.2,0.4s0.5,0.2,1.2,0.3c1,0.2,1.7,0.4,2,0.7c0.3,0.3,0.5,0.7,0.5,1.2
			c0,0.7-0.3,1.3-1,1.8s-1.7,0.8-3,0.8c-1.1,0-1.9-0.2-2.4-0.5s-0.8-0.9-0.9-1.6l2.6-0.2c0.1,0.6,0.5,0.8,1.1,0.8
			c0.3,0,0.5-0.1,0.8-0.2c0.2-0.1,0.3-0.3,0.3-0.5s-0.1-0.4-0.2-0.4c-0.2-0.1-0.5-0.1-0.9-0.2c-1-0.2-1.7-0.4-2.1-0.7
			c-0.4-0.3-0.5-0.7-0.5-1.2c0-0.4,0.1-0.8,0.4-1.2c0.3-0.4,0.7-0.7,1.2-0.9c0.6-0.2,1.2-0.3,2-0.3c0.9,0,1.6,0.1,2.1,0.4
			C236.3,15.4,236.6,15.9,236.7,16.6z"/>
		<path id="XMLID_7_" class="st0" d="M252.6,12.4l-0.4,1.6c-0.4-0.1-0.7-0.2-0.9-0.2s-0.4,0-0.5,0.1s-0.2,0.4-0.4,1h1.3l-0.4,1.9
			H250l-1.1,5h-2.7l1.1-5h-1l0.4-1.9h1c0.2-0.8,0.3-1.3,0.4-1.6c0.1-0.2,0.2-0.5,0.4-0.7s0.4-0.3,0.7-0.4s0.6-0.1,1.1-0.1
			C251,12.1,251.7,12.2,252.6,12.4z"/>
		<path id="XMLID_5_" class="st0" d="M257.1,14.9l-0.4,1.9h-1.4l-0.5,2.5c0,0.1,0,0.2,0,0.3c0,0.3,0.2,0.5,0.6,0.5
			c0.1,0,0.4,0,0.8-0.1l-0.4,1.9c-0.8,0.1-1.4,0.2-1.8,0.2c-0.7,0-1.3-0.2-1.6-0.5c-0.3-0.4-0.5-0.7-0.5-1.2c0-0.1,0.1-0.5,0.2-1.1
			l0.5-2.4h-1L252,15h1l0.2-1.1l3-1.5l-0.5,2.5L257.1,14.9L257.1,14.9z"/>
	</g>
	<path id="XMLID_3_" class="st0" d="M213.7,19.9h-2.8c-0.1,0.1-0.2,0.2-0.2,0.3c-0.3,0.3-0.7,0.4-1,0.4c-0.2,0-0.4-0.1-0.6-0.2
		s-0.2-0.3-0.2-0.5s0.1-0.4,0.3-0.6c0.2-0.2,0.9-0.3,2.1-0.5c0,0.2-0.1,0.3-0.1,0.4h2.6c0-0.1,0-0.2,0.1-0.3c0.2-1,0.4-1.7,0.4-2.1
		c0-0.7-0.2-1.1-0.7-1.5c-0.5-0.3-1.4-0.5-2.7-0.5c-1.2,0-2.1,0.2-2.7,0.5c-0.6,0.4-0.9,0.9-1.1,1.5l2.5,0.3
		c0.1-0.3,0.3-0.5,0.5-0.6s0.4-0.1,0.7-0.1c0.3,0,0.5,0.1,0.7,0.2s0.3,0.2,0.3,0.4c0,0.1,0,0.3-0.1,0.5c-0.3,0.1-0.8,0.2-1.5,0.2
		c-0.9,0.1-1.5,0.2-2,0.3c-0.5,0.1-0.9,0.3-1.3,0.7c-0.3,0.3-0.5,0.8-0.5,1.4c0,0.5,0.2,1,0.6,1.4s1,0.6,1.9,0.6s1.6-0.3,2.3-0.9
		c0,0.3,0,0.5,0.1,0.8h2.6c-0.1-0.3-0.2-0.6-0.2-1C213.6,20.6,213.6,20.3,213.7,19.9z"/>
	<path id="XMLID_2_" class="st0" d="M244.6,15.7c-0.6-0.6-1.5-0.9-2.7-0.9c-0.9,0-1.7,0.2-2.3,0.6c-0.7,0.4-1.2,0.9-1.5,1.5
		c-0.3,0.7-0.5,1.3-0.5,2c0,0.1,0,0.2,0,0.3h2.6c0-0.1,0-0.2,0-0.3c0-0.5,0.1-1,0.4-1.6c0.3-0.5,0.7-0.8,1.3-0.8
		c0.3,0,0.5,0.1,0.7,0.3c0.2,0.2,0.3,0.5,0.3,0.9c0,0.6-0.1,1.2-0.4,1.7s-0.7,0.8-1.2,0.8c-0.3,0-0.5-0.1-0.7-0.3h-2.9
		c0.1,0.5,0.4,0.9,0.7,1.2c0.6,0.6,1.5,0.9,2.7,0.9c1,0,1.8-0.2,2.4-0.6c0.7-0.4,1.1-0.9,1.5-1.6c0.3-0.7,0.5-1.3,0.5-1.9
		C245.5,17,245.2,16.3,244.6,15.7z"/>
</g>
<g>
	<g>
		<path class="st0" d="M0.3,26.1c0.2-0.1,0.4-0.3,0.6-0.3c0.6,0,1.2,0,1.8,0c0.7,0,0.8,0.1,0.8,0.8c0,2.7,0,5.4,0,8c0,1.7,0,3.3,0,5
			c0,0.6-0.1,0.7-0.7,0.7s-1.3,0-1.9,0c-0.2,0-0.4-0.2-0.6-0.3C0.3,35.5,0.3,30.8,0.3,26.1z"/>
		<path class="st0" d="M42,30.8c0,3,0,5.9,0,8.9c0,0.6-0.1,0.7-0.7,0.7c-1.1,0-2.3,0-3.4,0c-0.6,0-0.7-0.1-0.7-0.7
			c0-1.1,0-2.3,0-3.4c0-0.7-0.1-0.8-0.7-0.8c-1.6,0-3.2,0-4.7,0c-0.5,0-0.7,0.1-0.7,0.7c0,1.2,0,2.3,0,3.5c0,0.6-0.1,0.7-0.7,0.7
			c-4.6,0-9.2,0-13.8,0c-0.6,0-0.7-0.1-0.7-0.7c0-4.4,0-8.8,0-13.2c0-0.5,0.1-0.7,0.7-0.7c1,0,1.9,0,2.9,0c0.3,0,0.6-0.1,0.8-0.2
			c2-1.4,4.1-2.7,6.1-4.1c0.1-0.1,0.2-0.1,0.3-0.2c0.4-0.2,0.7-0.1,0.7,0.4c0,0.6,0,1.2,0,1.8c0,0.4,0,0.7,0,1.1
			c0,0.2,0.1,0.6,0.3,0.7c0.1,0.1,0.5,0,0.7-0.2c1.8-1.2,3.5-2.4,5.3-3.6c0.1-0.1,0.2-0.1,0.3-0.2c0.4-0.2,0.7-0.1,0.8,0.4
			c0,0.4,0,0.7,0,1.1c0,0.6,0,1.3,0,1.9c0,0.2,0.1,0.5,0.2,0.6c0.2,0.1,0.5,0,0.6-0.1c1.8-1.2,3.6-2.4,5.4-3.7
			c0.1-0.1,0.2-0.2,0.3-0.2c0.3-0.1,0.6,0,0.6,0.3c0,0.1,0,0.3,0,0.4C42,24.9,42,27.8,42,30.8z M22.8,31.1c0,0.4,0,0.8,0,1.1
			c0,0.4,0.2,0.5,0.5,0.5c0.7,0,1.5,0,2.2,0c0.3,0,0.5-0.2,0.5-0.5c0-0.7,0-1.5,0-2.2c0-0.3-0.2-0.5-0.5-0.5c-0.7,0-1.5,0-2.2,0
			c-0.4,0-0.5,0.2-0.5,0.5C22.8,30.4,22.8,30.7,22.8,31.1z M38.2,29.5c-0.4,0-0.7,0-1.1,0s-0.6,0.1-0.6,0.6c0,0.7,0,1.4,0,2.2
			c0,0.4,0.2,0.6,0.5,0.6c0.7,0,1.5,0,2.2,0c0.4,0,0.5-0.2,0.5-0.5c0-0.7,0-1.5,0-2.2c0-0.4-0.2-0.5-0.6-0.5
			C38.9,29.5,38.6,29.5,38.2,29.5z M30.6,31.1c0-0.4,0-0.8,0-1.1c0-0.3-0.2-0.5-0.5-0.5c-0.7,0-1.5,0-2.2,0c-0.3,0-0.5,0.2-0.5,0.5
			c0,0.7,0,1.5,0,2.2c0,0.3,0.2,0.5,0.5,0.5c0.7,0,1.5,0,2.2,0c0.4,0,0.5-0.2,0.5-0.6C30.6,31.8,30.6,31.5,30.6,31.1z M19.8,29.5
			c-0.4,0-0.7,0-1.1,0s-0.6,0.1-0.6,0.6c0,0.7,0,1.4,0,2.1c0,0.4,0.2,0.6,0.6,0.6c0.7,0,1.4,0,2.1,0c0.4,0,0.6-0.2,0.6-0.5
			c0-0.7,0-1.5,0-2.2c0-0.4-0.2-0.5-0.6-0.5C20.5,29.5,20.1,29.5,19.8,29.5z M33.6,29.5c-0.4,0-0.7,0-1.1,0s-0.6,0.1-0.6,0.6
			c0,0.7,0,1.4,0,2.2c0,0.4,0.2,0.6,0.6,0.6c0.7,0,1.4,0,2.2,0c0.3,0,0.5-0.2,0.5-0.5c0-0.7,0-1.5,0-2.2c0-0.4-0.2-0.5-0.5-0.5
			C34.3,29.5,34,29.5,33.6,29.5z"/>
		<path class="st0" d="M4.3,27.5c0-4,0-8,0-12c0-0.4,0.2-0.7,0.5-1c0.9-0.7,1.9-1,3-1.1c1.7-0.3,3.4-0.2,5.1,0.3
			c0.3,0.1,0.5,0.2,0.8,0.3c0.9,0.4,1.3,0.9,1.3,2c-0.1,7.9,0,15.7,0,23.6c0,0.8-0.1,0.8-0.8,0.8c-3,0-6,0-9.1,0
			c-0.7,0-0.8-0.1-0.8-0.8C4.3,35.5,4.3,31.5,4.3,27.5z"/>
		<path class="st0" d="M12.5,7.1c-0.1-0.6-0.1-0.6,0.3-1.9c-1.2,0.2-2.4,0.3-3.5,0.6C8.4,6,7.6,6.4,6.9,7.1H6.8c0-0.3,0-0.6,0.1-0.9
			C7.2,5,8,4.2,9,3.6c1.1-0.6,2.3-0.8,3.4-1c0.7-0.1,1.3-0.3,2-0.5c1-0.3,1.8-0.8,2.5-1.5c0.1-0.1,0.2-0.2,0.4-0.3
			c0.1,0.9-0.1,1.7-0.6,2.5c2.2-0.4,4.5-0.6,6.2-2.6c0.1,1-0.1,1.7-0.5,2.5c-0.7,1.2-1.8,1.9-3.1,2.2c-1,0.3-2,0.4-3.1,0.6
			C14.3,5.8,14,6,12.5,7.1z"/>
		<path class="st0" d="M15,12.5c-1-1.1-2.3-1.4-3.6-1.6c-1.7-0.2-3.3-0.2-5,0.3c-0.8,0.2-1.5,0.5-2.1,1.2c0-0.1,0-0.2,0-0.3
			c0-0.5,0-1,0-1.5C4.2,9.7,4.7,9.2,5.4,8.8c1.3-0.7,2.7-0.9,4.2-0.9s3,0.2,4.3,0.9c0.7,0.4,1.2,0.9,1.1,1.8
			C15,11.3,15,11.8,15,12.5z"/>
	</g>
	<g>
		<path class="st0" d="M0,25.9c0.2-0.1,0.4-0.3,0.6-0.3c0.6,0,1.2,0,1.8,0c0.7,0,0.8,0.1,0.8,0.8c0,2.7,0,5.4,0,8c0,1.7,0,3.3,0,5
			c0,0.6-0.1,0.7-0.7,0.7s-1.3,0-1.9,0c-0.2,0-0.4-0.2-0.6-0.3C0,35.2,0,30.6,0,25.9z"/>
		<path class="st0" d="M41.8,30.6c0,3,0,5.9,0,8.9c0,0.6-0.1,0.7-0.7,0.7c-1.1,0-2.3,0-3.4,0c-0.6,0-0.7-0.1-0.7-0.7
			c0-1.1,0-2.3,0-3.4c0-0.7-0.1-0.8-0.7-0.8c-1.6,0-3.2,0-4.7,0c-0.5,0-0.7,0.1-0.7,0.7c0,1.2,0,2.3,0,3.5c0,0.6-0.1,0.7-0.7,0.7
			c-4.6,0-9.2,0-13.8,0c-0.6,0-0.7-0.1-0.7-0.7c0-4.4,0-8.8,0-13.2c0-0.5,0.1-0.7,0.7-0.7c1,0,1.9,0,2.9,0c0.3,0,0.6-0.1,0.8-0.2
			c2-1.4,4.1-2.7,6.1-4.1c0.1-0.1,0.2-0.1,0.3-0.2c0.4-0.2,0.7-0.1,0.7,0.4c0,0.6,0,1.2,0,1.8c0,0.4,0,0.7,0,1.1
			c0,0.2,0.1,0.6,0.3,0.7c0.1,0.1,0.5,0,0.7-0.2c1.8-1.2,3.5-2.4,5.3-3.6c0.1-0.1,0.2-0.1,0.3-0.2c0.4-0.2,0.7-0.1,0.8,0.4
			c0,0.4,0,0.7,0,1.1c0,0.6,0,1.3,0,1.9c0,0.2,0.1,0.5,0.2,0.6c0.2,0.1,0.5,0,0.6-0.1c1.8-1.2,3.6-2.4,5.4-3.7
			c0.1-0.1,0.2-0.2,0.3-0.2c0.3-0.1,0.6,0,0.6,0.3c0,0.1,0,0.3,0,0.4C41.8,24.7,41.8,27.6,41.8,30.6z M22.5,30.9c0,0.4,0,0.8,0,1.1
			c0,0.4,0.2,0.5,0.5,0.5c0.7,0,1.5,0,2.2,0c0.3,0,0.5-0.2,0.5-0.5c0-0.7,0-1.5,0-2.2c0-0.3-0.2-0.5-0.5-0.5c-0.7,0-1.5,0-2.2,0
			c-0.4,0-0.5,0.2-0.5,0.5C22.5,30.2,22.5,30.5,22.5,30.9z M38,29.3c-0.4,0-0.7,0-1.1,0s-0.6,0.1-0.6,0.6c0,0.7,0,1.4,0,2.2
			c0,0.4,0.2,0.6,0.5,0.6c0.7,0,1.5,0,2.2,0c0.4,0,0.5-0.2,0.5-0.5c0-0.7,0-1.5,0-2.2c0-0.4-0.2-0.5-0.6-0.5
			C38.7,29.3,38.4,29.3,38,29.3z M30.4,30.9c0-0.4,0-0.8,0-1.1c0-0.3-0.2-0.5-0.5-0.5c-0.7,0-1.5,0-2.2,0c-0.3,0-0.5,0.2-0.5,0.5
			c0,0.7,0,1.5,0,2.2c0,0.3,0.2,0.5,0.5,0.5c0.7,0,1.5,0,2.2,0c0.4,0,0.5-0.2,0.5-0.6C30.4,31.6,30.4,31.3,30.4,30.9z M19.6,29.3
			c-0.4,0-0.7,0-1.1,0s-0.6,0.1-0.6,0.6c0,0.7,0,1.4,0,2.1c0,0.4,0.2,0.6,0.6,0.6c0.7,0,1.4,0,2.1,0c0.4,0,0.6-0.2,0.6-0.5
			c0-0.7,0-1.5,0-2.2c0-0.4-0.2-0.5-0.6-0.5C20.3,29.3,19.9,29.3,19.6,29.3z M33.4,29.3c-0.4,0-0.7,0-1.1,0s-0.6,0.1-0.6,0.6
			c0,0.7,0,1.4,0,2.2c0,0.4,0.2,0.6,0.6,0.6c0.7,0,1.4,0,2.2,0c0.3,0,0.5-0.2,0.5-0.5c0-0.7,0-1.5,0-2.2c0-0.4-0.2-0.5-0.5-0.5
			C34.1,29.3,33.7,29.3,33.4,29.3z"/>
		<path class="st0" d="M4.1,27.2c0-4,0-8,0-12c0-0.4,0.2-0.7,0.5-1c0.9-0.7,1.9-1,3-1.1c1.7-0.3,3.4-0.2,5.1,0.3
			c0.3,0.1,0.5,0.2,0.8,0.3c0.9,0.4,1.3,0.9,1.3,2c-0.1,7.9,0,15.7,0,23.6c0,0.8-0.1,0.8-0.8,0.8c-3,0-6,0-9.1,0
			c-0.7,0-0.8-0.1-0.8-0.8C4.1,35.3,4.1,31.3,4.1,27.2z"/>
		<path class="st0" d="M12.2,6.9c-0.1-0.6-0.1-0.6,0.3-1.9C11.3,5.2,10.1,5.3,9,5.6C8.1,5.8,7.3,6.2,6.6,6.9H6.5
			c0-0.3,0-0.6,0.1-0.9c0.3-1.2,1.1-2,2.1-2.6c1.1-0.6,2.3-0.8,3.4-1c0.7-0.1,1.3-0.3,2-0.5c1-0.3,1.8-0.8,2.5-1.5
			c0.1-0.1,0.2-0.2,0.4-0.3c0.1,0.9-0.1,1.7-0.6,2.5C18.6,2.2,20.9,2,22.6,0c0.1,1-0.1,1.7-0.5,2.5c-0.7,1.2-1.8,1.9-3.1,2.2
			c-1,0.3-2,0.4-3.1,0.6C14.1,5.6,13.7,5.8,12.2,6.9z"/>
		<path class="st0" d="M14.8,12.3c-1-1.1-2.3-1.4-3.6-1.6c-1.7-0.2-3.3-0.2-5,0.3c-0.8,0.2-1.5,0.5-2.1,1.2c0-0.1,0-0.2,0-0.3
			c0-0.5,0-1,0-1.5C4,9.5,4.5,9,5.2,8.6c1.3-0.7,2.7-0.9,4.2-0.9s3,0.2,4.3,0.9c0.7,0.4,1.2,0.9,1.1,1.8
			C14.8,11,14.8,11.6,14.8,12.3z"/>
	</g>
</g>
<g>
	<path class="st0" d="M45,40.2V28.5h5.1c1.3,0,2.2,0.1,2.8,0.3c0.6,0.2,1,0.6,1.4,1.1c0.3,0.5,0.5,1.2,0.5,1.8
		c0,0.9-0.3,1.6-0.8,2.2s-1.3,0.9-2.4,1.1c0.5,0.3,1,0.6,1.3,1s0.8,1,1.4,1.9l1.5,2.3h-2.9l-1.7-2.5c-0.6-0.9-1-1.5-1.3-1.7
		c-0.2-0.2-0.5-0.4-0.7-0.5s-0.7-0.1-1.2-0.1h-0.5v4.9L45,40.2L45,40.2z M47.4,33.4h1.8c1.2,0,1.9,0,2.2-0.1s0.5-0.3,0.7-0.5
		s0.2-0.5,0.2-0.9s-0.1-0.7-0.3-1s-0.5-0.4-0.9-0.5c-0.2,0-0.8,0-1.8,0h-1.9L47.4,33.4L47.4,33.4z"/>
	<path class="st0" d="M67.8,40.2h-2.6l-1-2.7h-4.8l-1,2.7h-2.6l4.7-11.7h2.6L67.8,40.2z M63.3,35.5l-1.6-4.3l-1.6,4.3H63.3z"/>
	<path class="st0" d="M69,40.2V28.5h2.4v11.7H69z"/>
	<path class="st0" d="M73.7,40.2V28.5h3.9c1.5,0,2.4,0.1,2.9,0.2c0.7,0.2,1.3,0.6,1.7,1.1c0.5,0.6,0.7,1.3,0.7,2.3
		c0,0.7-0.1,1.3-0.4,1.8s-0.6,0.9-1,1.2c-0.4,0.3-0.8,0.5-1.3,0.6c-0.6,0.1-1.4,0.2-2.5,0.2h-1.6v4.4h-2.4V40.2z M76.1,30.4v3.3h1.3
		c1,0,1.6-0.1,1.9-0.2s0.6-0.3,0.8-0.6s0.3-0.6,0.3-0.9c0-0.4-0.1-0.8-0.4-1.1c-0.3-0.3-0.6-0.5-1-0.5c-0.3-0.1-0.9-0.1-1.7-0.1
		h-1.2V30.4z"/>
	<path class="st0" d="M84.8,28.4h2.4v6.3c0,1,0,1.7,0.1,2c0.1,0.5,0.3,0.9,0.7,1.2c0.4,0.3,0.9,0.4,1.6,0.4s1.2-0.1,1.5-0.4
		s0.6-0.6,0.6-1c0.1-0.4,0.1-1.1,0.1-2v-6.5h2.4v6.2c0,1.4-0.1,2.4-0.2,3s-0.4,1.1-0.7,1.5s-0.8,0.7-1.4,1c-0.6,0.2-1.4,0.4-2.3,0.4
		c-1.1,0-2-0.1-2.6-0.4s-1.1-0.6-1.4-1s-0.6-0.8-0.7-1.3c-0.2-0.7-0.2-1.7-0.2-3v-6.4H84.8z"/>
	<path class="st0" d="M96.9,40.2V28.5h5.1c1.3,0,2.2,0.1,2.8,0.3c0.6,0.2,1,0.6,1.4,1.1c0.3,0.5,0.5,1.2,0.5,1.8
		c0,0.9-0.3,1.6-0.8,2.2s-1.3,0.9-2.4,1.1c0.5,0.3,1,0.6,1.3,1s0.8,1,1.4,1.9l1.5,2.3h-2.9l-1.7-2.5c-0.6-0.9-1-1.5-1.3-1.7
		c-0.2-0.2-0.5-0.4-0.7-0.5s-0.7-0.1-1.2-0.1h-0.5v4.9L96.9,40.2L96.9,40.2z M99.3,33.4h1.8c1.2,0,1.9,0,2.2-0.1s0.5-0.3,0.7-0.5
		s0.2-0.5,0.2-0.9s-0.1-0.7-0.3-1s-0.5-0.4-0.9-0.5c-0.2,0-0.8,0-1.8,0h-1.9L99.3,33.4L99.3,33.4z"/>
	<path class="st0" d="M123.7,40.2h-2.6l-1-2.7h-4.8l-1,2.7h-2.6l4.7-11.7h2.6L123.7,40.2z M119.3,35.5l-1.6-4.3l-1.6,4.3H119.3z"/>
	<path class="st0" d="M125,28.4h2.4v6.3c0,1,0,1.7,0.1,2c0.1,0.5,0.3,0.9,0.7,1.2c0.4,0.3,0.9,0.4,1.6,0.4s1.2-0.1,1.5-0.4
		s0.6-0.6,0.6-1c0.1-0.4,0.1-1.1,0.1-2v-6.5h2.4v6.2c0,1.4-0.1,2.4-0.2,3s-0.4,1.1-0.7,1.5s-0.8,0.7-1.4,1c-0.6,0.2-1.4,0.4-2.3,0.4
		c-1.1,0-2-0.1-2.6-0.4s-1.1-0.6-1.4-1s-0.6-0.8-0.7-1.3c-0.2-0.7-0.2-1.7-0.2-3v-6.4H125z"/>
	<path class="st0" d="M139.8,40.2v-9.7h-3.5v-2h9.5v2h-3.5v9.7H139.8z"/>
	<path class="st0" d="M146.5,34.4c0-1.2,0.2-2.2,0.5-3c0.3-0.6,0.6-1.1,1.1-1.6s1-0.8,1.5-1.1c0.7-0.3,1.6-0.5,2.6-0.5
		c1.8,0,3.2,0.5,4.2,1.6s1.6,2.6,1.6,4.5s-0.5,3.4-1.6,4.4c-1,1.1-2.5,1.6-4.2,1.6c-1.8,0-3.2-0.5-4.2-1.6
		C147,37.7,146.5,36.2,146.5,34.4z M149,34.3c0,1.3,0.3,2.3,0.9,3s1.4,1,2.4,1s1.8-0.3,2.4-1s0.9-1.7,0.9-3.1c0-1.3-0.3-2.3-0.9-3
		s-1.4-1-2.4-1s-1.8,0.3-2.4,1S149,33,149,34.3z"/>
	<path class="st0" d="M164.6,40.2V28.5h5.1c1.3,0,2.2,0.1,2.8,0.3c0.6,0.2,1,0.6,1.4,1.1c0.3,0.5,0.5,1.2,0.5,1.8
		c0,0.9-0.3,1.6-0.8,2.2s-1.3,0.9-2.4,1.1c0.5,0.3,1,0.6,1.3,1s0.8,1,1.4,1.9l1.5,2.3h-2.9l-1.7-2.5c-0.6-0.9-1-1.5-1.3-1.7
		c-0.2-0.2-0.5-0.4-0.7-0.5s-0.7-0.1-1.2-0.1h-0.5v4.9L164.6,40.2L164.6,40.2z M167,33.4h1.8c1.2,0,1.9,0,2.2-0.1s0.5-0.3,0.7-0.5
		s0.2-0.5,0.2-0.9s-0.1-0.7-0.3-1c-0.2-0.2-0.5-0.4-0.9-0.5c-0.2,0-0.8,0-1.8,0H167L167,33.4L167,33.4z"/>
	<path class="st0" d="M176.6,40.2V28.5h2.4v11.7H176.6z"/>
	<path class="st0" d="M188.9,35.9l2.3,0.7c-0.4,1.3-1,2.2-1.8,2.8c-0.8,0.6-1.9,0.9-3.2,0.9c-1.6,0-2.9-0.5-3.9-1.6
		s-1.5-2.5-1.5-4.4c0-2,0.5-3.5,1.5-4.5s2.4-1.6,4.1-1.6c1.5,0,2.6,0.4,3.6,1.3c0.5,0.5,1,1.2,1.2,2.2l-2.4,0.6
		c-0.1-0.6-0.4-1.1-0.9-1.4s-1-0.5-1.6-0.5c-0.9,0-1.6,0.3-2.2,0.9s-0.8,1.6-0.8,3c0,1.5,0.3,2.5,0.8,3.2c0.5,0.6,1.2,0.9,2.1,0.9
		c0.6,0,1.2-0.2,1.7-0.6C188.4,37.3,188.7,36.7,188.9,35.9z"/>
	<path class="st0" d="M193.3,40.2V28.5h8.9v2h-6.5v2.6h6v2h-6v3.2h6.7v2h-9.1V40.2z"/>
	<path class="st0" d="M209.1,40.2V28.5h3.6l2.2,8l2.1-8h3.6v11.7h-2.2V31l-2.4,9.2h-2.3l-2.4-9.2v9.2H209.1z"/>
	<path class="st0" d="M222.9,40.2V28.5h2.4v11.7H222.9z"/>
	<path class="st0" d="M227.7,40.2V28.6h2.4v9.6h6v2H227.7z"/>
	<path class="st0" d="M237.9,40.2V28.6h2.4v9.6h6v2H237.9z"/>
	<path class="st0" d="M247.4,36.4l2.3-0.2c0.1,0.8,0.4,1.3,0.9,1.7c0.4,0.4,1,0.5,1.7,0.5c0.8,0,1.4-0.2,1.8-0.5
		c0.4-0.3,0.6-0.7,0.6-1.1c0-0.3-0.1-0.5-0.2-0.7s-0.5-0.4-0.9-0.5c-0.3-0.1-0.9-0.3-1.9-0.5c-1.3-0.3-2.2-0.7-2.7-1.2
		c-0.7-0.6-1.1-1.4-1.1-2.4c0-0.6,0.2-1.2,0.5-1.7s0.8-0.9,1.5-1.2s1.4-0.4,2.4-0.4c1.5,0,2.6,0.3,3.4,1s1.2,1.5,1.2,2.6l-2.4,0.1
		c-0.1-0.6-0.3-1-0.7-1.3s-0.8-0.4-1.5-0.4s-1.3,0.1-1.6,0.4c-0.3,0.2-0.4,0.4-0.4,0.7c0,0.3,0.1,0.5,0.4,0.7c0.3,0.3,1,0.5,2.2,0.8
		s2,0.6,2.6,0.8c0.6,0.3,1,0.7,1.3,1.2s0.5,1.1,0.5,1.9c0,0.7-0.2,1.3-0.6,1.9c-0.4,0.6-0.9,1-1.6,1.3s-1.6,0.4-2.6,0.4
		c-1.5,0-2.7-0.3-3.5-1S247.6,37.7,247.4,36.4z"/>
</g>
</svg>
